<svg width="20" height="21" viewBox="0 0 20 21" fill="none" xmlns="http://www.w3.org/2000/svg">
<g clip-path="url(#clip0_190_79)">
<path d="M18.3334 9.73336V10.5C18.3324 12.297 17.7505 14.0456 16.6745 15.4849C15.5986 16.9242 14.0862 17.9771 12.3629 18.4866C10.6396 18.9961 8.7978 18.9349 7.11214 18.3122C5.42648 17.6894 3.98729 16.5384 3.00922 15.0309C2.03114 13.5234 1.56657 11.7401 1.68481 9.94696C1.80305 8.15383 2.49775 6.44697 3.66531 5.08092C4.83288 3.71488 6.41074 2.76285 8.16357 2.36682C9.91641 1.97079 11.7503 2.15198 13.3918 2.88336M18.3334 3.83336L10.0001 12.175L7.50009 9.67503" stroke="#3E7B27" stroke-width="2.5" stroke-linecap="round" stroke-linejoin="round"/>
</g>
<defs>
<clipPath id="clip0_190_79">
<rect width="20" height="20" fill="white" transform="translate(0 0.5)"/>
</clipPath>
</defs>
</svg>
